<svg width="896" height="896" viewBox="0 0 896 896" fill="none" xmlns="http://www.w3.org/2000/svg">
<path d="M448 14C200.697 14 0 208.425 0 448C0 687.575 200.697 882 448 882C695.303 882 896 687.575 896 448C896 208.425 695.303 14 448 14Z" fill="#1ED760"/>
<path d="M734.503 404.425C725.11 404.425 719.329 402.15 711.2 397.6C582.581 323.225 352.619 305.375 203.768 345.625C197.264 347.375 189.135 350.175 180.464 350.175C156.619 350.175 138.374 332.15 138.374 308.875C138.374 285.075 153.548 271.6 169.806 267.05C233.393 249.025 304.568 240.45 382.064 240.45C513.935 240.45 652.129 267.05 753.11 324.1C767.2 331.975 776.413 342.825 776.413 363.65C776.413 387.45 756.542 404.425 734.503 404.425ZM678.503 537.775C669.11 537.775 662.787 533.75 656.284 530.425C543.38 465.675 375.019 439.6 225.264 478.975C216.593 481.25 211.897 483.525 203.768 483.525C184.439 483.525 168.722 468.3 168.722 449.575C168.722 430.85 178.116 418.425 196.722 413.35C246.942 399.7 298.245 389.55 373.393 389.55C490.632 389.55 603.897 417.725 693.135 469.175C707.768 477.575 713.548 488.425 713.548 503.65C713.368 522.55 698.193 537.775 678.503 537.775ZM629.91 652.575C622.322 652.575 617.626 650.3 610.58 646.275C497.858 580.475 366.71 577.675 237.187 603.4C230.142 605.15 220.929 607.95 215.69 607.95C198.168 607.95 187.148 594.475 187.148 580.3C187.148 562.275 198.168 553.7 211.716 550.9C359.664 519.225 510.864 522.025 639.845 596.75C650.864 603.575 657.368 609.7 657.368 625.625C657.368 641.55 644.542 652.575 629.91 652.575Z" fill="black"/>
</svg>
