<svg xmlns="http://www.w3.org/2000/svg" viewBox="0 0 170 170" fill="none">
  <path fill="#1ED760" d="M85 0C38.07 0 0 38.07 0 85s38.07 85 85 85 85-38.07 85-85S131.93 0 85 0zm39.37 122.5c-1.54 2.51-4.82 3.34-7.33 1.8-20.1-12.28-45.46-15.06-75.22-8.25-2.88.68-5.76-.97-6.44-3.85-.68-2.88.97-5.76 3.85-6.44 32.64-7.46 60.76-4.25 83.33 9.4 2.51 1.54 3.34 4.82 1.8 7.33zm10.5-23.34c-1.93 3.13-6.03 4.12-9.15 2.19-23.02-14.15-58.1-18.27-85.36-10-3.48 1.06-7.17-.9-8.22-4.39-1.06-3.48.9-7.17 4.39-8.22 31.14-9.46 69.93-4.88 96.16 11.28 3.13 1.93 4.12 6.03 2.19 9.15zm.9-24.33c-27.62-16.4-73.2-17.92-99.6-9.92-4.17 1.25-8.58-1.1-9.83-5.27-1.25-4.17 1.1-8.58 5.28-9.83 30.35-9.21 80.8-7.44 112.7 11.46 3.75 2.22 4.98 7.08 2.76 10.83-2.22 3.75-7.08 4.98-10.83 2.76z"/>
</svg>
