<svg width="128" height="128" viewBox="0 0 128 128" fill="none" xmlns="http://www.w3.org/2000/svg">
  <defs>
    <linearGradient id="grad1" x1="0%" y1="0%" x2="100%" y2="100%">
      <stop offset="0%" style="stop-color:#6e6e6e;stop-opacity:1" />
      <stop offset="100%" style="stop-color:#acacac;stop-opacity:1" />
    </linearGradient>
    <linearGradient id="grad2" x1="0%" y1="0%" x2="100%" y2="100%">
      <stop offset="0%" style="stop-color:#57a0ff;stop-opacity:1" />
      <stop offset="100%" style="stop-color:#0055d4;stop-opacity:1" />
    </linearGradient>
    <linearGradient id="grad3" x1="0%" y1="0%" x2="100%" y2="100%">
      <stop offset="0%" style="stop-color:#ffb03c;stop-opacity:1" />
      <stop offset="100%" style="stop-color:#cc8100;stop-opacity:1" />
    </linearGradient>
  </defs>
  
  <!-- Base Circle -->
  <circle cx="64" cy="64" r="60" fill="url(#grad1)" />
  <circle cx="64" cy="64" r="56" fill="#ffffff" stroke="#e0e0e0" stroke-width="1" />
  
  <!-- Gear Elements -->
  <circle cx="64" cy="64" r="24" fill="url(#grad2)" stroke="#003c9e" stroke-width="1" />
  
  <!-- Gear Teeth -->
  <g>
    <!-- Top -->
    <rect x="62" y="20" width="4" height="20" fill="url(#grad3)" rx="1" />
    <!-- Bottom -->
    <rect x="62" y="88" width="4" height="20" fill="url(#grad3)" rx="1" />
    <!-- Left -->
    <rect x="20" y="62" width="20" height="4" fill="url(#grad3)" rx="1" />
    <!-- Right -->
    <rect x="88" y="62" width="20" height="4" fill="url(#grad3)" rx="1" />
    
    <!-- Top-Right -->
    <rect x="80" y="35" width="16" height="4" fill="url(#grad3)" rx="1" transform="rotate(45 80 35)" />
    <!-- Top-Left -->
    <rect x="35" y="35" width="16" height="4" fill="url(#grad3)" rx="1" transform="rotate(-45 35 35)" />
    <!-- Bottom-Right -->
    <rect x="80" y="90" width="16" height="4" fill="url(#grad3)" rx="1" transform="rotate(-45 80 90)" />
    <!-- Bottom-Left -->
    <rect x="35" y="90" width="16" height="4" fill="url(#grad3)" rx="1" transform="rotate(45 35 90)" />
  </g>
  
  <!-- Inner Detail -->
  <circle cx="64" cy="64" r="16" fill="#ffffff" stroke="#003c9e" stroke-width="1" />
</svg>
